Coordinates
version=1
nRows=17
nColumns=40
inDegrees=yes

Units are S.I. units (second, meters, Newtons, ...)
Angles are in degrees.

endheader
time	pelvis_tilt	pelvis_list	pelvis_rotation	pelvis_tx	pelvis_ty	pelvis_tz	hip_flexion_r	hip_adduction_r	hip_rotation_r	knee_angle_r	knee_angle_r_beta	ankle_angle_r	subtalar_angle_r	mtp_angle_r	hip_flexion_l	hip_adduction_l	hip_rotation_l	knee_angle_l	knee_angle_l_beta	ankle_angle_l	subtalar_angle_l	mtp_angle_l	lumbar_extension	lumbar_bending	lumbar_rotation	arm_flex_r	arm_add_r	arm_rot_r	elbow_flex_r	pro_sup_r	wrist_flex_r	wrist_dev_r	arm_flex_l	arm_add_l	arm_rot_l	elbow_flex_l	pro_sup_l	wrist_flex_l	wrist_dev_l
     52.59750000	     -9.98779163	     -5.04545413	      0.18157835	      1.08706209	      0.91881527	      0.47335408	      6.56280429	     -3.50110139	    -12.84787070	     28.04194019	     28.04194019	     11.96449784	     -0.48217717	    -12.22886529	     30.70037093	     -6.38953413	     -1.41483574	     24.36003622	     24.36003622	      6.35992767	    -13.19568330	      4.90299662	    -10.48698083	      3.92320773	      3.95302901	     26.74361903	    -15.49506479	      6.50689727	    101.92354404	     44.37460916	      0.00000000	      0.00000000	     -4.85977903	     -9.27626325	     -8.21419431	     42.55109928	     45.87502387	      0.00000000	      0.00000000
     52.60914286	     -9.84709481	     -4.97282414	      0.10799982	      1.08771612	      0.92061723	      0.47032048	      7.62235290	     -4.01404536	    -11.99122505	     30.81968756	     30.81968756	      8.96460150	     -3.45399354	    -16.61651666	     29.68495953	     -6.17896881	     -1.69681498	     23.99209931	     23.99209931	      6.83114199	    -12.99958116	      4.87957596	    -10.42533272	      3.97189985	      3.71968781	     24.93028347	    -14.98043708	      6.03829630	     99.37605690	     44.49970999	      0.00000000	      0.00000000	     -5.04599396	     -9.73939737	     -7.62758823	     45.03166748	     45.87775645	      0.00000000	      0.00000000
     52.62078571	     -9.71297594	     -4.88778460	      0.02778965	      1.08833154	      0.92232037	      0.46728679	      8.90527094	     -4.63254507	    -11.35747657	     33.99704705	     33.99704705	      6.38084023	     -5.74787183	    -19.03195329	     28.62603906	     -5.95517368	     -2.01258016	     23.53819660	     23.53819660	      7.25890449	    -12.72112786	      4.66779522	    -10.39815248	      4.00472276	      3.56593394	     23.00113073	    -14.87875993	      6.03861972	     97.14119680	     44.59524968	      0.00000000	      0.00000000	     -4.96181453	    -10.16704557	     -7.15909870	     46.96018851	     45.90355994	      0.00000000	      0.00000000
     52.63242857	     -9.54701927	     -4.71629646	     -0.03068838	      1.08884645	      0.92393623	      0.46421337	     10.37295913	     -5.42563081	    -10.92095716	     37.56341638	     37.56341638	      4.34626693	     -7.24373339	    -19.15247176	     27.52740446	     -5.62740206	     -2.34940688	     23.06795300	     23.06795300	      7.69215326	    -12.43635475	      4.55091821	    -10.42079195	      3.98450438	      3.56725918	     20.81633872	    -15.10894120	      6.17065139	     95.41479524	     44.64054934	      0.00000000	      0.00000000	     -4.30198846	    -10.38755568	     -7.19625915	     47.83831419	     45.92891675	      0.00000000	      0.00000000
     52.64407143	     -9.50250227	     -4.63267297	     -0.17321435	      1.08916006	      0.92520356	      0.46146545	     12.12407946	     -5.93942020	    -10.12990532	     41.15275169	     41.15275169	      1.89659778	     -9.59616889	    -19.02101300	     26.58142334	     -5.42950018	     -2.69840466	     22.60634441	     22.60634441	      8.08019111	    -12.18096048	      4.40858934	    -10.28733395	      4.03429029	      3.74089550	     18.75875191	    -15.33689865	      5.75973934	     92.79686698	     44.73298520	      0.00000000	      0.00000000	     -3.87652791	    -10.66042203	     -7.08562538	     49.39001698	     45.94755626	      0.00000000	      0.00000000
     52.65571429	     -9.30340757	     -4.72050686	     -0.20514921	      1.08945878	      0.92644906	      0.45882304	     13.66135106	     -6.15399382	     -9.43216263	     44.49758083	     44.49758083	     -0.92875048	    -12.42994478	    -19.03728411	     25.59610887	     -5.39414477	     -2.91067924	     22.33426671	     22.33426671	      8.47811225	    -11.84445123	      3.96330774	    -10.30747812	      4.22337887	      3.06786042	     17.61049096	    -14.25665509	      4.47222119	     88.06261400	     44.93892012	      0.00000000	      0.00000000	     -5.00398951	    -11.70330706	     -5.64750330	     54.03881777	     45.93426538	      0.00000000	      0.00000000
     52.66735714	     -9.07648723	     -4.61352370	     -0.22565347	      1.08964069	      0.92747933	      0.45601434	     15.26761145	     -6.78806476	     -9.18391997	     47.93330476	     47.93330476	     -3.30924138	    -14.04941534	    -18.23486131	     24.59512837	     -5.11873895	     -3.08347716	     22.08629174	     22.08629174	      8.92708883	    -11.65997472	      3.81064307	    -10.48157821	      4.27245845	      2.91439660	     15.55318738	    -14.57077015	      4.45610234	     86.22551590	     44.99130477	      0.00000000	      0.00000000	     -4.35099861	    -12.00011574	     -5.70401242	     54.95427068	     45.96255149	      0.00000000	      0.00000000
     52.67900000	     -9.04728205	     -4.41557529	     -0.42279574	      1.08958012	      0.92799730	      0.45351162	     17.28383157	     -7.27032899	     -8.46019184	     51.39319190	     51.39319190	     -5.55308064	    -16.36299059	    -16.56721582	     23.81495589	     -4.81877003	     -3.44854260	     21.86903564	     21.86903564	      9.35232920	    -11.53268778	      3.63196672	    -10.30911358	      4.21533489	      3.24812485	     13.55806997	    -14.98152970	      3.93541718	     83.12247646	     45.10149680	      0.00000000	      0.00000000	     -3.74826812	    -12.33521866	     -5.57333027	     56.71531352	     45.98787535	      0.00000000	      0.00000000
     52.69064286	     -8.83924127	     -4.57466877	     -0.54611246	      1.08944418	      0.92860756	      0.45130356	     19.22583661	     -7.36537920	     -8.07577443	     55.02786778	     55.02786778	     -5.23011271	    -16.58228120	     -8.45111676	     22.97616148	     -4.90973701	     -3.64449481	     21.84399130	     21.84399130	      9.87956937	    -11.29124664	      3.27164798	    -10.33526305	      4.47911717	      2.39844448	     13.46998970	    -13.66915651	      2.19593060	     76.33102430	     45.36820477	      0.00000000	      0.00000000	     -5.17249316	    -13.69108685	     -3.88470898	     61.95628781	     46.04493283	      0.00000000	      0.00000000
     52.70228571	     -8.70835201	     -4.41606191	     -0.74734393	      1.08919707	      0.92889456	      0.44894122	     21.05838072	     -7.93222190	     -7.87355133	     57.93551631	     57.93551631	     -6.80595890	    -17.87475949	     -7.18449590	     22.17421353	     -4.64931070	     -3.93883686	     21.75684217	     21.75684217	     10.37585187	    -11.23848169	      3.08458106	    -10.37493099	      4.48129682	      2.64388567	     11.61598864	    -14.22302536	      1.86254656	     73.82558223	     45.45293460	      0.00000000	      0.00000000	     -4.40737541	    -13.95414015	     -3.92792074	     63.23622516	     46.08449516	      0.00000000	      0.00000000
     52.71392857	     -8.49032888	     -4.45942977	     -0.91677446	      1.08878564	      0.92926874	      0.44689087	     22.93900323	     -8.17836823	     -7.73168442	     60.90421533	     60.90421533	     -6.04334720	    -18.00121510	     -0.17344248	     21.37010109	     -4.63809527	     -4.21731057	     21.80309687	     21.80309687	     10.93508717	    -11.00725950	      2.82548090	    -10.46270088	      4.61647322	      2.16670868	     11.46816757	    -13.31574257	     -0.25240468	     67.16295055	     45.72386280	      0.00000000	      0.00000000	     -4.79922525	    -15.04487551	     -2.62786434	     66.69195063	     46.12793339	      0.00000000	      0.00000000
     52.72557143	     -8.33983360	     -4.31865670	     -1.19801651	      1.08830517	      0.92937628	      0.44487440	     24.70248885	     -8.73086535	     -7.71670437	     63.21014626	     63.21014626	     -6.68073314	    -18.58086744	      0.75139390	     20.56509419	     -4.42657100	     -4.54569851	     21.73555926	     21.73555926	     11.47804039	    -10.94333837	      2.62601954	    -10.54855758	      4.60259135	      2.46357519	      9.74289695	    -14.03527448	     -0.47542626	     64.81434747	     45.79955401	      0.00000000	      0.00000000	     -3.95180835	    -15.23837380	     -2.71732404	     67.96259641	     46.17283259	      0.00000000	      0.00000000
     52.73721429	     -8.13086510	     -4.35522688	     -1.46193330	      1.08765252	      0.92968808	      0.44320063	     26.47737474	     -8.91325781	     -7.65915993	     65.35515401	     65.35515401	     -5.63766407	    -18.68029395	      5.83268733	     19.75237443	     -4.46663267	     -5.00718029	     21.74249270	     21.74249270	     12.03057820	    -10.54969654	      2.35693845	    -10.69337704	      4.73344772	      2.08535201	      9.91165950	    -13.46716800	     -2.28871649	     57.92967977	     46.06914763	      0.00000000	      0.00000000	     -4.01494699	    -16.31993120	     -1.44668287	     70.79680038	     46.21085502	      0.00000000	      0.00000000
     52.74885714	     -7.94848635	     -4.33521414	     -1.79297632	      1.08689637	      0.92993124	      0.44166628	     28.15149595	     -9.18628880	     -7.69068150	     66.95993609	     66.95993609	     -5.26320190	    -18.82187530	      7.56160194	     18.91490333	     -4.45688879	     -5.54270398	     21.65883355	     21.65883355	     12.57429071	    -10.15014859	      2.08703811	    -10.86476713	      4.79319232	      2.11922431	      9.24249389	    -13.71307525	     -3.18353388	     53.38690778	     46.22688307	      0.00000000	      0.00000000	     -3.47763728	    -16.81925837	     -1.05169228	     72.60945713	     46.28431351	      0.00000000	      0.00000000
     52.76050000	     -7.80990592	     -4.25892390	     -2.16513346	      1.08600809	      0.93014346	      0.44028546	     29.79430835	     -9.45908736	     -7.70183962	     68.10883139	     68.10883139	     -5.03346787	    -18.90046738	      7.71858646	     18.05520490	     -4.36868137	     -6.05200688	     21.42979700	     21.42979700	     13.03692033	     -9.87651590	      1.90271822	    -11.05716860	      4.80069553	      2.48356698	      7.75574516	    -14.47075802	     -3.47981352	     50.88396451	     46.31145184	      0.00000000	      0.00000000	     -2.53988020	    -16.89166062	     -1.13525934	     73.92359239	     46.33538577	      0.00000000	      0.00000000
     52.77214286	     -7.62400796	     -4.32110750	     -2.50818239	      1.08509956	      0.93052043	      0.43922655	     31.28497768	     -9.45652329	     -7.73760157	     68.80851557	     68.80851557	     -4.51004814	    -18.87163021	      8.37701980	     17.17378521	     -4.52287652	     -6.85307041	     21.27193757	     21.27193757	     13.57824211	     -8.98422454	      1.41882483	    -11.21742885	      4.91814962	      2.22731555	      8.04834194	    -14.36983142	     -4.91125747	     44.57001716	     46.56679829	      0.00000000	      0.00000000	     -2.14426096	    -17.86153072	      0.07826411	     75.73070841	     46.35389443	      0.00000000	      0.00000000
     52.78378571	     -7.52714499	     -4.28294127	     -2.90117241	      1.08402332	      0.93087361	      0.43827156	     32.80510119	     -9.47190928	     -7.67903227	     69.04924907	     69.04924907	     -4.14893735	    -18.71669037	      8.05224552	     16.25235059	     -4.47679377	     -7.39788597	     20.82971140	     20.82971140	     13.96150879	     -8.61331918	      1.29391470	    -11.42661418	      4.93013203	      2.43844476	      6.58879709	    -15.07698560	     -5.20314136	     42.57415439	     46.63739682	      0.00000000	      0.00000000	     -1.22714036	    -17.86313105	     -0.18946296	     76.83034588	     46.41036508	      0.00000000	      0.00000000
